<mxfile host="app.diagrams.net" modified="2021-09-17T02:56:27.767Z" agent="5.0 (Windows NT 10.0; Win64; x64) AppleWebKit/537.36 (KHTML, like Gecko) Chrome/93.0.4577.82 Safari/537.36" etag="233Iq8XcbgofWRVhFXrh" version="15.2.1" type="github">
  <diagram name="Page-1" id="74e2e168-ea6b-b213-b513-2b3c1d86103e">
    <mxGraphModel dx="1038" dy="547" grid="1" gridSize="10" guides="1" tooltips="1" connect="1" arrows="1" fold="1" page="1" pageScale="1" pageWidth="1100" pageHeight="850" background="none" math="0" shadow="0">
      <root>
        <mxCell id="0" />
        <mxCell id="1" parent="0" />
        <mxCell id="77e6c97f196da883-1" value="商品价格管理" style="swimlane;html=1;childLayout=stackLayout;startSize=20;rounded=0;shadow=0;labelBackgroundColor=none;strokeWidth=1;fontFamily=Verdana;fontSize=8;align=center;" parent="1" vertex="1">
          <mxGeometry x="70" y="40" width="800" height="1090" as="geometry" />
        </mxCell>
        <mxCell id="77e6c97f196da883-2" value="ERP" style="swimlane;html=1;startSize=20;" parent="77e6c97f196da883-1" vertex="1">
          <mxGeometry y="20" width="160" height="1070" as="geometry" />
        </mxCell>
        <mxCell id="MgIVTUlZ8Vb8D1_nN2JT-2" value="" style="edgeStyle=orthogonalEdgeStyle;rounded=0;orthogonalLoop=1;jettySize=auto;html=1;" edge="1" parent="77e6c97f196da883-2" source="77e6c97f196da883-8" target="77e6c97f196da883-9">
          <mxGeometry relative="1" as="geometry" />
        </mxCell>
        <mxCell id="77e6c97f196da883-8" value="创建价格组" style="rounded=1;whiteSpace=wrap;html=1;shadow=0;labelBackgroundColor=none;strokeWidth=1;fontFamily=Verdana;fontSize=8;align=center;" parent="77e6c97f196da883-2" vertex="1">
          <mxGeometry x="20" y="65" width="100" height="45" as="geometry" />
        </mxCell>
        <mxCell id="MgIVTUlZ8Vb8D1_nN2JT-5" value="" style="edgeStyle=orthogonalEdgeStyle;rounded=0;orthogonalLoop=1;jettySize=auto;html=1;" edge="1" parent="77e6c97f196da883-2" source="77e6c97f196da883-9" target="77e6c97f196da883-11">
          <mxGeometry relative="1" as="geometry" />
        </mxCell>
        <mxCell id="77e6c97f196da883-9" value="选择商品及价格" style="rounded=1;whiteSpace=wrap;html=1;shadow=0;labelBackgroundColor=none;strokeWidth=1;fontFamily=Verdana;fontSize=8;align=center;" parent="77e6c97f196da883-2" vertex="1">
          <mxGeometry x="20" y="155" width="100" height="45" as="geometry" />
        </mxCell>
        <mxCell id="77e6c97f196da883-11" value="保存价格组" style="rounded=1;whiteSpace=wrap;html=1;shadow=0;labelBackgroundColor=none;strokeWidth=1;fontFamily=Verdana;fontSize=8;align=center;" parent="77e6c97f196da883-2" vertex="1">
          <mxGeometry x="20" y="240" width="100" height="40" as="geometry" />
        </mxCell>
        <mxCell id="MgIVTUlZ8Vb8D1_nN2JT-7" value="任务结束" style="rounded=1;whiteSpace=wrap;html=1;shadow=0;labelBackgroundColor=none;strokeWidth=1;fontFamily=Verdana;fontSize=8;align=center;" vertex="1" parent="77e6c97f196da883-2">
          <mxGeometry x="30" y="980" width="100" height="40" as="geometry" />
        </mxCell>
        <mxCell id="MgIVTUlZ8Vb8D1_nN2JT-19" style="edgeStyle=orthogonalEdgeStyle;rounded=0;orthogonalLoop=1;jettySize=auto;html=1;entryX=0.5;entryY=0;entryDx=0;entryDy=0;" edge="1" parent="77e6c97f196da883-2" source="MgIVTUlZ8Vb8D1_nN2JT-9" target="MgIVTUlZ8Vb8D1_nN2JT-7">
          <mxGeometry relative="1" as="geometry" />
        </mxCell>
        <mxCell id="MgIVTUlZ8Vb8D1_nN2JT-9" value="分页同步库存" style="rounded=1;whiteSpace=wrap;html=1;shadow=0;labelBackgroundColor=none;strokeWidth=1;fontFamily=Verdana;fontSize=8;align=center;" vertex="1" parent="77e6c97f196da883-2">
          <mxGeometry x="30" y="800" width="100" height="40" as="geometry" />
        </mxCell>
        <mxCell id="MgIVTUlZ8Vb8D1_nN2JT-16" value="" style="edgeStyle=orthogonalEdgeStyle;rounded=0;orthogonalLoop=1;jettySize=auto;html=1;" edge="1" parent="77e6c97f196da883-2" source="MgIVTUlZ8Vb8D1_nN2JT-8" target="MgIVTUlZ8Vb8D1_nN2JT-9">
          <mxGeometry relative="1" as="geometry" />
        </mxCell>
        <mxCell id="MgIVTUlZ8Vb8D1_nN2JT-8" value="商品发生&lt;br&gt;价格变动？" style="rhombus;whiteSpace=wrap;html=1;" vertex="1" parent="77e6c97f196da883-2">
          <mxGeometry x="25" y="700" width="110" height="70" as="geometry" />
        </mxCell>
        <mxCell id="MgIVTUlZ8Vb8D1_nN2JT-15" value="" style="edgeStyle=orthogonalEdgeStyle;rounded=0;orthogonalLoop=1;jettySize=auto;html=1;" edge="1" parent="77e6c97f196da883-2" source="MgIVTUlZ8Vb8D1_nN2JT-6" target="MgIVTUlZ8Vb8D1_nN2JT-8">
          <mxGeometry relative="1" as="geometry" />
        </mxCell>
        <mxCell id="MgIVTUlZ8Vb8D1_nN2JT-6" value="定时任务" style="rounded=1;whiteSpace=wrap;html=1;shadow=0;labelBackgroundColor=none;strokeWidth=1;fontFamily=Verdana;fontSize=8;align=center;" vertex="1" parent="77e6c97f196da883-2">
          <mxGeometry x="30" y="620" width="100" height="45" as="geometry" />
        </mxCell>
        <mxCell id="MgIVTUlZ8Vb8D1_nN2JT-18" value="" style="edgeStyle=orthogonalEdgeStyle;rounded=0;orthogonalLoop=1;jettySize=auto;html=1;entryX=0;entryY=0.5;entryDx=0;entryDy=0;" edge="1" parent="77e6c97f196da883-2" source="MgIVTUlZ8Vb8D1_nN2JT-8" target="MgIVTUlZ8Vb8D1_nN2JT-7">
          <mxGeometry relative="1" as="geometry">
            <mxPoint x="-50" y="735" as="targetPoint" />
            <Array as="points">
              <mxPoint x="20" y="735" />
              <mxPoint x="20" y="996" />
            </Array>
          </mxGeometry>
        </mxCell>
        <mxCell id="MgIVTUlZ8Vb8D1_nN2JT-31" value="" style="edgeStyle=orthogonalEdgeStyle;rounded=0;orthogonalLoop=1;jettySize=auto;html=1;" edge="1" parent="77e6c97f196da883-2" source="MgIVTUlZ8Vb8D1_nN2JT-29" target="MgIVTUlZ8Vb8D1_nN2JT-30">
          <mxGeometry relative="1" as="geometry" />
        </mxCell>
        <mxCell id="MgIVTUlZ8Vb8D1_nN2JT-29" value="起用价格组" style="rounded=1;whiteSpace=wrap;html=1;shadow=0;labelBackgroundColor=none;strokeWidth=1;fontFamily=Verdana;fontSize=8;align=center;" vertex="1" parent="77e6c97f196da883-2">
          <mxGeometry x="20" y="310" width="100" height="45" as="geometry" />
        </mxCell>
        <mxCell id="MgIVTUlZ8Vb8D1_nN2JT-33" value="" style="edgeStyle=orthogonalEdgeStyle;rounded=0;orthogonalLoop=1;jettySize=auto;html=1;" edge="1" parent="77e6c97f196da883-2" source="MgIVTUlZ8Vb8D1_nN2JT-30" target="MgIVTUlZ8Vb8D1_nN2JT-32">
          <mxGeometry relative="1" as="geometry" />
        </mxCell>
        <mxCell id="MgIVTUlZ8Vb8D1_nN2JT-39" style="edgeStyle=orthogonalEdgeStyle;rounded=0;orthogonalLoop=1;jettySize=auto;html=1;exitX=0;exitY=0.5;exitDx=0;exitDy=0;entryX=0;entryY=0.5;entryDx=0;entryDy=0;" edge="1" parent="77e6c97f196da883-2" source="MgIVTUlZ8Vb8D1_nN2JT-30" target="MgIVTUlZ8Vb8D1_nN2JT-37">
          <mxGeometry relative="1" as="geometry">
            <Array as="points">
              <mxPoint x="10" y="416" />
              <mxPoint x="10" y="570" />
            </Array>
          </mxGeometry>
        </mxCell>
        <mxCell id="MgIVTUlZ8Vb8D1_nN2JT-30" value="审核" style="rhombus;whiteSpace=wrap;html=1;rounded=1;shadow=0;fontFamily=Verdana;fontSize=8;strokeWidth=1;" vertex="1" parent="77e6c97f196da883-2">
          <mxGeometry x="20" y="390" width="100" height="52.5" as="geometry" />
        </mxCell>
        <mxCell id="MgIVTUlZ8Vb8D1_nN2JT-38" value="" style="edgeStyle=orthogonalEdgeStyle;rounded=0;orthogonalLoop=1;jettySize=auto;html=1;" edge="1" parent="77e6c97f196da883-2" source="MgIVTUlZ8Vb8D1_nN2JT-32" target="MgIVTUlZ8Vb8D1_nN2JT-37">
          <mxGeometry relative="1" as="geometry" />
        </mxCell>
        <mxCell id="MgIVTUlZ8Vb8D1_nN2JT-32" value="价格组起用" style="whiteSpace=wrap;html=1;rounded=1;shadow=0;fontFamily=Verdana;fontSize=8;strokeWidth=1;" vertex="1" parent="77e6c97f196da883-2">
          <mxGeometry x="20" y="477" width="100" height="40" as="geometry" />
        </mxCell>
        <mxCell id="MgIVTUlZ8Vb8D1_nN2JT-37" value="结束" style="whiteSpace=wrap;html=1;rounded=1;shadow=0;fontFamily=Verdana;fontSize=8;strokeWidth=1;" vertex="1" parent="77e6c97f196da883-2">
          <mxGeometry x="20" y="550" width="100" height="40" as="geometry" />
        </mxCell>
        <mxCell id="77e6c97f196da883-3" value="商品中台" style="swimlane;html=1;startSize=20;" parent="77e6c97f196da883-1" vertex="1">
          <mxGeometry x="160" y="20" width="160" height="1070" as="geometry" />
        </mxCell>
        <mxCell id="MgIVTUlZ8Vb8D1_nN2JT-11" value="同步价格" style="rounded=1;whiteSpace=wrap;html=1;shadow=0;labelBackgroundColor=none;strokeWidth=1;fontFamily=Verdana;fontSize=8;align=center;" vertex="1" parent="77e6c97f196da883-3">
          <mxGeometry x="49" y="990" width="100" height="40" as="geometry" />
        </mxCell>
        <mxCell id="MgIVTUlZ8Vb8D1_nN2JT-22" value="" style="edgeStyle=orthogonalEdgeStyle;rounded=0;orthogonalLoop=1;jettySize=auto;html=1;" edge="1" parent="77e6c97f196da883-3" source="MgIVTUlZ8Vb8D1_nN2JT-10" target="MgIVTUlZ8Vb8D1_nN2JT-21">
          <mxGeometry relative="1" as="geometry" />
        </mxCell>
        <mxCell id="MgIVTUlZ8Vb8D1_nN2JT-10" value="价格同步数据记录" style="rounded=1;whiteSpace=wrap;html=1;shadow=0;labelBackgroundColor=none;strokeWidth=1;fontFamily=Verdana;fontSize=8;align=center;" vertex="1" parent="77e6c97f196da883-3">
          <mxGeometry x="49" y="795" width="100" height="50" as="geometry" />
        </mxCell>
        <mxCell id="MgIVTUlZ8Vb8D1_nN2JT-23" value="" style="edgeStyle=orthogonalEdgeStyle;rounded=0;orthogonalLoop=1;jettySize=auto;html=1;" edge="1" parent="77e6c97f196da883-3" source="MgIVTUlZ8Vb8D1_nN2JT-21" target="MgIVTUlZ8Vb8D1_nN2JT-11">
          <mxGeometry relative="1" as="geometry" />
        </mxCell>
        <mxCell id="MgIVTUlZ8Vb8D1_nN2JT-21" value="商品发生&lt;br&gt;价格变动？" style="rhombus;whiteSpace=wrap;html=1;" vertex="1" parent="77e6c97f196da883-3">
          <mxGeometry x="44" y="880" width="110" height="70" as="geometry" />
        </mxCell>
        <mxCell id="MgIVTUlZ8Vb8D1_nN2JT-20" value="" style="edgeStyle=orthogonalEdgeStyle;rounded=0;orthogonalLoop=1;jettySize=auto;html=1;" edge="1" parent="77e6c97f196da883-1" source="MgIVTUlZ8Vb8D1_nN2JT-9" target="MgIVTUlZ8Vb8D1_nN2JT-10">
          <mxGeometry relative="1" as="geometry" />
        </mxCell>
        <mxCell id="MgIVTUlZ8Vb8D1_nN2JT-26" style="edgeStyle=orthogonalEdgeStyle;rounded=0;orthogonalLoop=1;jettySize=auto;html=1;entryX=0;entryY=0.5;entryDx=0;entryDy=0;" edge="1" parent="77e6c97f196da883-1" source="MgIVTUlZ8Vb8D1_nN2JT-11" target="MgIVTUlZ8Vb8D1_nN2JT-13">
          <mxGeometry relative="1" as="geometry" />
        </mxCell>
        <mxCell id="MgIVTUlZ8Vb8D1_nN2JT-27" value="" style="edgeStyle=orthogonalEdgeStyle;rounded=0;orthogonalLoop=1;jettySize=auto;html=1;" edge="1" parent="77e6c97f196da883-1" source="MgIVTUlZ8Vb8D1_nN2JT-13" target="MgIVTUlZ8Vb8D1_nN2JT-14">
          <mxGeometry relative="1" as="geometry" />
        </mxCell>
        <mxCell id="MgIVTUlZ8Vb8D1_nN2JT-28" style="edgeStyle=orthogonalEdgeStyle;rounded=0;orthogonalLoop=1;jettySize=auto;html=1;entryX=0;entryY=0.5;entryDx=0;entryDy=0;" edge="1" parent="77e6c97f196da883-1" source="MgIVTUlZ8Vb8D1_nN2JT-11" target="MgIVTUlZ8Vb8D1_nN2JT-12">
          <mxGeometry relative="1" as="geometry">
            <Array as="points">
              <mxPoint x="320" y="1030" />
              <mxPoint x="320" y="940" />
            </Array>
          </mxGeometry>
        </mxCell>
        <mxCell id="77e6c97f196da883-4" value="微商城" style="swimlane;html=1;startSize=20;" parent="77e6c97f196da883-1" vertex="1">
          <mxGeometry x="320" y="20" width="160" height="1070" as="geometry" />
        </mxCell>
        <mxCell id="MgIVTUlZ8Vb8D1_nN2JT-12" value="更新价格" style="rounded=1;whiteSpace=wrap;html=1;shadow=0;labelBackgroundColor=none;strokeWidth=1;fontFamily=Verdana;fontSize=8;align=center;" vertex="1" parent="77e6c97f196da883-4">
          <mxGeometry x="40" y="900" width="100" height="40" as="geometry" />
        </mxCell>
        <mxCell id="77e6c97f196da883-5" value="接口中台" style="swimlane;html=1;startSize=20;" parent="77e6c97f196da883-1" vertex="1">
          <mxGeometry x="480" y="20" width="160" height="1070" as="geometry" />
        </mxCell>
        <mxCell id="MgIVTUlZ8Vb8D1_nN2JT-13" value="同步价格" style="rounded=1;whiteSpace=wrap;html=1;shadow=0;labelBackgroundColor=none;strokeWidth=1;fontFamily=Verdana;fontSize=8;align=center;" vertex="1" parent="77e6c97f196da883-5">
          <mxGeometry x="50" y="990" width="100" height="40" as="geometry" />
        </mxCell>
        <mxCell id="77e6c97f196da883-7" value="第三方平台(美团、饿百等)" style="swimlane;html=1;startSize=20;" parent="77e6c97f196da883-1" vertex="1">
          <mxGeometry x="640" y="20" width="160" height="1070" as="geometry" />
        </mxCell>
        <mxCell id="MgIVTUlZ8Vb8D1_nN2JT-14" value="更新价格" style="rounded=1;whiteSpace=wrap;html=1;shadow=0;labelBackgroundColor=none;strokeWidth=1;fontFamily=Verdana;fontSize=8;align=center;" vertex="1" parent="77e6c97f196da883-7">
          <mxGeometry x="40" y="990" width="100" height="40" as="geometry" />
        </mxCell>
        <mxCell id="MgIVTUlZ8Vb8D1_nN2JT-25" style="edgeStyle=orthogonalEdgeStyle;rounded=0;orthogonalLoop=1;jettySize=auto;html=1;exitX=0;exitY=0.5;exitDx=0;exitDy=0;" edge="1" parent="1" source="MgIVTUlZ8Vb8D1_nN2JT-21">
          <mxGeometry relative="1" as="geometry">
            <mxPoint x="330" y="920" as="targetPoint" />
            <Array as="points">
              <mxPoint x="254" y="975" />
              <mxPoint x="254" y="920" />
              <mxPoint x="330" y="920" />
            </Array>
          </mxGeometry>
        </mxCell>
      </root>
    </mxGraphModel>
  </diagram>
</mxfile>
